<svg width="32" height="32" viewBox="0 0 32 32" fill="none" xmlns="http://www.w3.org/2000/svg">
  <path d="M24.1878 4H29.9796L15.5 28.9774L1.02036 4H12.0973L15.5 9.79186L18.8303 4H24.1878Z" fill="#41B883" />
  <path d="M1.02036 4L15.5 28.9774L29.9796 4H24.1878L15.5 18.9864L6.73981 4H1.02036Z" fill="#41B883" />
  <path d="M6.73981 4L15.5 19.0588L24.1878 4H18.8303L15.5 9.79186L12.0973 4H6.73981Z" fill="#35495E" />
  <path d="M29.3625 28.2334H21.7409C21.3957 28.2334 21.1036 27.9413 21.1036 27.5961V23.4002C21.1036 23.055 21.3957 22.7629 21.7409 22.7629H29.336C29.6812 22.7629 29.9733 23.055 29.9733 23.4002V27.5961C29.9733 27.9413 29.7078 28.2334 29.3625 28.2334ZM21.7409 23.1877C21.6347 23.1877 21.5285 23.294 21.5285 23.4002V27.5961C21.5285 27.7288 21.6347 27.8085 21.7409 27.8085H29.336C29.4688 27.8085 29.5484 27.7023 29.5484 27.5961V23.4002C29.5484 23.2674 29.4422 23.1877 29.336 23.1877H21.7409ZM22.3783 26.9587V24.0375H23.2281L24.0779 25.0998L24.9277 24.0375H25.7775V26.9587H24.9277V25.2857L24.0779 26.348L23.2281 25.2857V26.9587H22.3783ZM27.7161 26.9587L26.4414 25.5512H27.2912V24.0375H28.141V25.5247H28.9908L27.7161 26.9587Z"
        fill="#41B883" />
</svg>